<?xml version="1.0" standalone="no"?>
<!DOCTYPE svg PUBLIC "-//W3C//DTD SVG 20010904//EN"
 "http://www.w3.org/TR/2001/REC-SVG-20010904/DTD/svg10.dtd">
<svg version="1.0" xmlns="http://www.w3.org/2000/svg"
 width="96.000000pt" height="96.000000pt" viewBox="0 0 96.000000 96.000000"
 preserveAspectRatio="xMidYMid meet">

<g transform="translate(0.000000,96.000000) scale(0.100000,-0.100000)"
fill="#000000" stroke="none">
<path d="M517 737 c-4 -10 -16 -17 -29 -16 -22 1 -22 1 2 9 52 17 -2 9 -99
-14 -56 -13 -108 -29 -116 -36 -12 -10 -15 -44 -15 -184 0 -120 4 -176 12
-184 8 -8 46 -12 105 -12 77 0 93 -3 93 -15 0 -24 46 -65 72 -64 18 0 15 3
-12 12 -61 21 -67 85 -11 113 29 15 64 6 57 -13 -3 -8 -1 -11 5 -8 12 8 1 -44
-15 -65 -10 -13 -9 -13 7 -1 9 7 17 23 17 35 0 15 3 17 9 8 4 -8 26 -16 48
-19 35 -5 43 -2 61 22 12 15 22 35 22 45 0 26 -39 70 -61 70 -10 0 -19 7 -19
15 0 8 9 15 20 15 17 0 20 7 20 45 0 38 -3 45 -20 45 -17 0 -20 7 -20 46 0 91
-24 106 -174 106 l-111 0 90 14 c50 7 96 11 103 9 6 -2 12 0 12 5 0 6 -9 10
-19 10 -11 0 -21 5 -23 12 -3 7 -7 6 -11 -5z m95 -84 c13 -11 18 -29 17 -62
-2 -46 -2 -46 -9 -11 l-7 35 -2 -32 c-1 -32 -3 -33 -42 -33 -59 0 -79 -14 -79
-55 0 -41 20 -55 79 -55 46 0 49 -7 24 -47 -13 -20 -25 -27 -41 -25 -13 2 -34
-4 -47 -12 -17 -11 -49 -16 -109 -16 -95 0 -91 -4 -99 85 -2 22 -4 11 -3 -25
l1 -65 90 -6 90 -5 -97 -2 -98 -2 0 175 0 175 157 0 c132 0 159 -3 175 -17z
m68 -158 l0 -35 -84 0 c-89 0 -104 9 -91 51 6 17 17 19 91 19 l84 0 0 -35z
m30 -117 c13 -25 13 -31 0 -55 -31 -56 -113 -36 -113 27 0 63 82 83 113 28z"/>
<path d="M297 653 c-4 -3 -6 -45 -5 -92 l2 -86 5 85 6 85 135 5 135 6 -136 2
c-75 1 -139 -1 -142 -5z"/>
<path d="M348 598 c8 -8 8 -15 1 -24 -7 -9 -3 -12 16 -10 30 1 31 7 7 29 -21
19 -42 23 -24 5z"/>
<path d="M380 599 c0 -5 5 -7 10 -4 6 3 10 8 10 11 0 2 -4 4 -10 4 -5 0 -10
-5 -10 -11z"/>
<path d="M457 600 c9 -9 9 -17 2 -26 -7 -9 -4 -12 13 -11 17 2 23 8 25 26 1
16 -2 20 -7 11 -7 -11 -12 -11 -27 0 -15 12 -16 12 -6 0z"/>
<path d="M344 414 c-2 -18 1 -22 10 -15 8 7 17 7 24 1 9 -7 9 -7 2 2 -6 7 -6
16 1 25 8 9 8 13 0 13 -6 0 -11 -5 -11 -11 0 -8 -4 -8 -12 -1 -10 8 -13 4 -14
-14z"/>
<path d="M454 414 c-2 -18 1 -22 10 -15 8 7 17 7 24 1 9 -7 9 -7 2 2 -6 7 -6
16 1 25 8 9 8 13 0 13 -6 0 -11 -5 -11 -11 0 -8 -4 -8 -12 -1 -10 8 -13 4 -14
-14z"/>
<path d="M537 504 c-9 -10 2 -24 19 -24 8 0 14 7 14 15 0 15 -21 21 -33 9z"/>
<path d="M686 377 c3 -10 9 -15 12 -12 3 3 0 11 -7 18 -10 9 -11 8 -5 -6z"/>
<path d="M612 350 c0 -14 2 -19 5 -12 2 6 2 18 0 25 -3 6 -5 1 -5 -13z"/>
<path d="M650 353 c0 -13 5 -23 10 -23 13 0 13 11 0 30 -8 12 -10 11 -10 -7z"/>
<path d="M686 323 c-6 -14 -5 -15 5 -6 7 7 10 15 7 18 -3 3 -9 -2 -12 -12z"/>
<path d="M509 323 c-12 -16 -12 -17 1 -7 8 7 24 14 35 17 19 4 19 5 -1 6 -12
0 -28 -7 -35 -16z"/>
<path d="M538 314 c-3 -5 -2 -18 2 -28 3 -11 9 -15 12 -10 3 5 2 18 -2 28 -3
11 -9 15 -12 10z"/>
<path d="M587 254 c-10 -13 -13 -24 -8 -24 10 0 36 39 29 45 -2 2 -11 -8 -21
-21z"/>
</g>
</svg>
